<svg width="188" height="166" viewBox="0 0 188 166" fill="none" xmlns="http://www.w3.org/2000/svg">
<path d="M99.7869 81.9605L99.6185 81.8238C98.0086 80.3444 96.3608 78.3538 95.0915 76.6914C94.4581 75.8619 93.9297 75.1283 93.5602 74.6031C93.3756 74.3406 93.2311 74.1307 93.1334 73.9875C93.0846 73.9159 93.0475 73.861 93.023 73.8246L93.0103 73.8057L93.0058 73.7979C92.9885 73.7682 92.9622 73.7229 92.9282 73.6632C92.8599 73.5439 92.7604 73.3675 92.6382 73.1443C92.3933 72.6975 92.0595 72.0669 91.705 71.3354C90.9827 69.8446 90.2278 68.0412 89.9184 66.5413C89.2171 63.142 88.4853 60.4117 87.7925 58.6629C87.3118 57.4495 86.2602 56.4179 85.0764 55.6402C83.8667 54.8457 82.367 54.2141 80.7566 53.8712C76.8096 52.9133 73.1523 53.0144 65.9501 53.6069L65.8761 53.6129L65.803 53.6263C55.6926 55.4766 50.3227 57.4367 41.5732 62.6339L41.5121 62.6702L41.4548 62.712C39.1967 64.3605 37.5541 65.7899 36.1946 67.408C34.8328 69.0287 33.804 70.7807 32.7122 73.0155L32.6281 73.1877L32.59 73.3754C31.8001 77.2658 31.7139 79.5651 32.596 83.5187L32.6151 83.6043L32.644 83.687C33.3479 85.7011 34.0482 87.372 34.84 88.9061C34.6614 88.7412 34.4782 88.5712 34.29 88.3957C30.5998 84.4867 28.9737 82.1847 26.5389 77.8185L26.5323 77.8067L26.5255 77.795C20.8822 68.0917 18.1127 61.7682 13.6751 49.0384C8.65273 34.5258 6.08922 26.2064 1.83896 11.0651C1.6116 10.194 1.50799 9.61125 1.50044 9.05347C1.49354 8.54385 1.56641 7.98487 1.77975 7.18894C2.05326 6.76282 2.21016 6.64042 2.28376 6.5953C2.35601 6.55103 2.49132 6.48944 2.98505 6.45308C3.2357 6.43462 3.68585 6.52252 4.20084 6.6958C4.43169 6.77348 4.63492 6.85414 4.77979 6.91523C4.85163 6.94552 4.90757 6.97034 4.94362 6.98667L4.98189 7.00423L4.98656 7.00642L4.98656 7.00643L4.99448 7.01017C16.6025 12.4879 33.7693 15.0507 50.8449 14.4364C67.9152 13.8222 85.1911 10.0224 96.9614 2.50701L96.9887 2.48959L97.0152 2.47101C97.181 2.35481 97.7013 2.12984 98.5998 1.91988C99.4416 1.72318 100.457 1.57545 101.476 1.52187C102.503 1.46789 103.472 1.51283 104.239 1.66821C105.065 1.83536 105.387 2.07519 105.466 2.17439L105.526 2.25099L105.596 2.31907C107.141 3.81786 108.063 5.5428 108.416 8.09984C108.779 10.7289 108.54 14.2427 107.655 19.2787C105.399 28.7509 103.402 33.6805 98.7187 42.0479C95.772 47.0011 94.5422 49.6388 92.8229 54.0978L92.7773 54.216L92.7522 54.3402C91.5875 60.0991 91.4979 63.5613 92.7519 69.7912L92.7759 69.9105L92.8189 70.0244C93.9157 72.9334 94.9371 75.0486 96.1745 76.8886C97.4129 78.7302 98.8286 80.2372 100.641 81.9582L100.699 82.0131L100.762 82.0615L100.762 82.0616L100.895 82.1637L100.981 82.229C105.071 85.3618 107.78 87.436 113.125 87.9357C113.125 87.9357 113.125 87.9357 113.125 87.9357L113.278 87.95L113.287 87.9509C115.51 88.1447 117.724 88.1642 118.976 88.1502L119.02 88.1497L119.064 88.1466C119.771 88.097 121.109 87.9785 121.881 87.7886C122.555 87.6229 123.232 87.4538 124.101 87.1447C124.246 87.0933 124.501 86.9712 124.718 86.8675C124.985 86.7397 125.348 86.5624 125.794 86.3435C126.687 85.9052 127.921 85.2934 129.39 84.5622C131.772 83.3771 134.779 81.8751 137.964 80.2843C138.709 79.912 139.464 79.5348 140.223 79.1556C148.248 75.1477 156.681 70.9431 158.878 69.9283C163.146 67.9567 170.385 66.337 173.532 66.1163C176.59 65.9019 179.603 66.5533 181.801 67.7855C182.981 68.4474 183.699 68.9821 184.22 69.5955C184.731 70.1973 185.134 70.973 185.512 72.244C185.919 73.6144 186.23 74.7214 186.388 76.344C186.549 77.9913 186.555 80.2159 186.282 83.7738C185.749 90.7232 183.809 97.5125 178.531 105.336L178.518 105.356L178.506 105.375C176.332 108.823 174.849 110.523 171.86 113.427L163.061 121.06L162.243 121.77L162.659 122.771L170.105 140.633C170.346 141.248 170.249 141.663 170.094 141.963C169.908 142.323 169.59 142.591 169.382 142.707C169.008 142.917 168.361 143.153 167.63 143.256C166.895 143.359 166.225 143.306 165.729 143.097C164.87 142.736 164.677 142.438 164.21 141.714C164.052 141.471 163.864 141.181 163.609 140.823C163.61 140.825 163.607 140.82 163.599 140.808C163.591 140.796 163.58 140.779 163.567 140.758C163.552 140.734 163.536 140.707 163.517 140.675C163.5 140.648 163.482 140.618 163.463 140.584C163.378 140.439 163.271 140.25 163.144 140.019C162.891 139.559 162.569 138.956 162.202 138.258C161.469 136.863 160.567 135.106 159.689 133.381C158.81 131.657 157.958 129.969 157.324 128.712C157.008 128.083 156.746 127.562 156.564 127.199L156.352 126.778L156.297 126.667L156.283 126.639L156.279 126.632L156.278 126.63L156.278 126.63C156.278 126.629 156.278 126.629 154.937 127.301L156.278 126.629L155.852 125.778C156.76 124.997 157.639 124.23 158.448 123.519C159.712 122.408 160.811 121.425 161.594 120.721C161.986 120.369 162.299 120.086 162.514 119.89C162.559 119.85 162.599 119.813 162.636 119.78C162.686 119.734 162.728 119.696 162.761 119.666L162.825 119.607L162.842 119.592L162.846 119.588L162.847 119.587L162.847 119.587C162.848 119.587 162.848 119.587 161.836 118.479L162.848 119.587L162.87 119.566L162.891 119.545L167.583 114.902L167.641 114.844L167.693 114.781L171.833 109.673L171.92 109.565L171.987 109.442C173.084 107.413 173.875 105.023 173.531 102.705C173.33 101.353 172.557 100.275 171.959 99.6052C171.647 99.2551 171.347 98.9769 171.124 98.7847C171.012 98.688 170.917 98.6113 170.847 98.5566C170.812 98.5295 170.783 98.5076 170.762 98.4912C167.768 96.0448 164.544 94.578 156.962 92.6495L156.943 92.6446L156.923 92.6402C150.613 91.2137 147.041 90.7037 140.739 90.0574L140.708 90.0542L140.677 90.0523C135.9 89.7639 130.58 89.6366 126.081 89.5575C124.838 89.5357 123.662 89.5176 122.58 89.5009C119.709 89.4566 117.491 89.4224 116.391 89.3558C114.235 89.2254 110.119 88.2903 107.907 87.4092C105.177 86.3211 103.528 84.9976 99.7869 81.9605Z" fill="#C6C6C6" stroke="black" stroke-width="3"/>
<path d="M99.6803 101.082C101.68 102.669 103.658 104.198 105.536 105.589C110.999 109.635 116.152 112.362 119.945 114.079C121.843 114.939 123.403 115.547 124.495 115.942C125.041 116.139 125.47 116.284 125.766 116.38C125.914 116.428 126.029 116.464 126.109 116.488C126.149 116.5 126.179 116.51 126.201 116.516L126.224 116.523C130.319 117.796 133.562 118.522 136.739 118.644C139.935 118.767 142.974 118.275 146.663 117.226L146.682 117.221L146.701 117.215C147.045 117.107 147.376 116.998 147.697 116.885C146.841 117.621 145.884 118.392 144.786 119.238L144.778 119.244C137.597 124.848 133.373 127.334 125.305 130.629C117.938 133.135 113.719 133.93 105.885 134.482C102.772 134.577 100.799 134.587 96.6151 134.481L95.1624 134.444L95.0795 135.895L96.5771 135.981C95.0795 135.895 95.0795 135.895 95.0795 135.895L95.0794 135.896L95.0793 135.899L95.0785 135.912L95.0756 135.964L95.0639 136.166L95.0192 136.937C94.9805 137.603 94.9244 138.558 94.8555 139.715C94.7176 142.028 94.528 145.145 94.3212 148.363C93.9034 154.865 93.4254 161.598 93.1664 163.123C93.0446 163.841 92.3914 164.38 91.4077 164.4C90.4588 164.418 89.6953 163.928 89.4812 163.028C89.0912 161.387 88.1375 154.307 87.2675 147.486C86.8367 144.108 86.4317 140.839 86.1343 138.414C85.9857 137.201 85.8639 136.2 85.7794 135.502L85.6817 134.693L85.6562 134.481L85.6497 134.427L85.6481 134.414L85.6477 134.41L85.6476 134.409C85.6475 134.409 85.6475 134.409 84.1582 134.588L85.6475 134.409L85.5104 133.266L84.3707 133.103C67.6376 130.708 59.2251 127.939 45.3875 120.722L44.1878 120.096L43.4422 121.225L44.6939 122.052C43.4422 121.225 43.4421 121.225 43.442 121.225L43.4415 121.226L43.4392 121.23L43.4303 121.243L43.3948 121.297L43.2561 121.507L42.7276 122.306C42.2713 122.996 41.6172 123.984 40.8262 125.177C39.2443 127.563 37.1151 130.768 34.9259 134.045C32.7361 137.323 30.4882 140.67 28.6681 143.341C26.8197 146.054 25.4748 147.976 25.0506 148.486C24.5631 149.072 23.9228 149.115 23.4558 148.912C23.2135 148.806 23.1123 148.673 23.0878 148.623C23.0878 148.623 23.0876 148.623 23.0873 148.622C23.0838 148.621 23.0664 148.612 23.1142 148.521C23.6822 147.446 27.4265 139.746 31.003 132.369C32.7971 128.669 34.5566 125.034 35.8676 122.324C36.5231 120.969 37.0665 119.845 37.446 119.06L37.8859 118.15L38.0015 117.911L38.0312 117.85L38.0387 117.834L38.0405 117.83L38.041 117.829C38.0411 117.829 38.0412 117.829 36.6906 117.176L38.0412 117.829L38.6165 116.639L37.5076 115.918C33.1254 113.073 30.2229 110.652 27.948 107.925C26.6408 106.357 25.5208 104.664 24.443 102.689C25.7007 103.386 26.9533 103.926 28.4889 104.438L28.5285 104.451L28.5688 104.462C30.4644 104.979 32.0373 105.27 33.6529 105.273C35.2708 105.276 36.8461 104.991 38.7494 104.46L38.7494 104.46L38.7607 104.457C42.4288 103.403 45.2809 101.002 50.8148 96.3444C51.0242 96.1681 51.2376 95.9885 51.4549 95.8057C54.4523 93.2843 57.6631 90.8702 60.1315 89.0822C61.364 88.1893 62.408 87.4551 63.1429 86.9448C63.5102 86.6896 63.8002 86.4905 63.9977 86.3557C64.0965 86.2882 64.1721 86.2368 64.2227 86.2025L64.2796 86.164L64.2927 86.1552C64.7548 85.85 65.1662 85.5706 65.5454 85.313C66.5497 84.6309 67.3289 84.1018 68.227 83.6508C69.3831 83.0702 70.7309 82.6341 72.9031 82.3851C73.881 82.3147 74.9978 82.4638 76.0099 82.7171C77.0534 82.9783 77.8247 83.3092 78.1196 83.4942L78.1271 83.4989L78.1346 83.5035C78.7052 83.8521 80.002 84.868 81.9046 86.4305C83.2908 87.569 84.941 88.9488 86.7679 90.4766C87.3962 91.002 88.0454 91.5449 88.7121 92.1014C90.993 94.0059 93.4733 96.0672 95.9953 98.1191L95.957 98.1667C96.8008 98.8441 98.2063 99.9404 99.6803 101.082Z" fill="#C6C6C6" stroke="black" stroke-width="3"/>
</svg>
