<svg width="411" height="85" viewBox="0 0 411 85" fill="none" xmlns="http://www.w3.org/2000/svg">
<mask id="path-1-outside-1_40_26" maskUnits="userSpaceOnUse" x="-2" y="-2" width="416" height="89" fill="black">
<rect fill="white" x="-2" y="-2" width="416" height="89"/>
<path d="M53.4734 29.2C52.0334 27.92 50.2334 26.96 48.0734 26.32C45.9134 25.6 43.7934 25.24 41.7134 25.24C39.3934 25.24 37.2734 25.68 35.3534 26.56C33.4334 27.36 31.7534 28.52 30.3134 30.04C28.9534 31.48 27.8734 33.24 27.0734 35.32C26.2734 37.4 25.8734 39.64 25.8734 42.04C25.8734 44.44 26.3134 46.68 27.1934 48.76C28.0734 50.84 29.2734 52.64 30.7934 54.16C32.3134 55.6 34.0734 56.76 36.0734 57.64C38.1534 58.44 40.3534 58.84 42.6734 58.84C45.3934 58.84 47.8734 58.28 50.1134 57.16C52.3534 55.96 54.2734 54.36 55.8734 52.36H48.6734V35.56H79.5134V62.2C77.6734 65.48 75.4734 68.48 72.9134 71.2C70.3534 73.84 67.4734 76.12 64.2734 78.04C61.1534 79.96 57.7534 81.44 54.0734 82.48C50.3934 83.52 46.5934 84.04 42.6734 84.04C36.9134 84.04 31.4734 82.96 26.3534 80.8C21.2334 78.64 16.7534 75.68 12.9134 71.92C9.15344 68.16 6.15344 63.72 3.91344 58.6C1.75344 53.48 0.673438 47.96 0.673438 42.04C0.673438 36.28 1.71344 30.84 3.79344 25.72C5.87344 20.6 8.71344 16.16 12.3134 12.4C15.9934 8.56 20.3134 5.56 25.2734 3.4C30.3134 1.16 35.7134 0.0399966 41.4734 0.0399966C45.9534 0.0399966 49.8334 0.479996 53.1134 1.35999C56.3934 2.24 59.1534 3.24 61.3934 4.36C64.0334 5.64 66.2334 7.03999 67.9934 8.55999L53.4734 29.2ZM106.858 1.95999H126.058L156.418 82H131.218L128.578 74.8H104.338L101.698 82H76.4984L106.858 1.95999ZM121.858 57.16L116.458 43.12L111.058 57.16H121.858ZM158.216 1.95999H185.816C190.936 1.95999 195.656 2.63999 199.976 4C204.376 5.36 208.176 7.36 211.376 10C214.576 12.64 217.056 15.92 218.816 19.84C220.656 23.68 221.576 28.12 221.576 33.16C221.576 37.16 221.016 40.56 219.896 43.36C218.776 46.16 217.536 48.48 216.176 50.32C214.576 52.4 212.776 54.16 210.776 55.6L225.776 82H195.776L183.776 61.72V82H158.216V1.95999ZM183.776 41.32H185.096C188.136 41.32 190.696 40.64 192.776 39.28C194.936 37.92 196.016 35.64 196.016 32.44C196.016 29.24 194.936 26.96 192.776 25.6C190.696 24.24 188.136 23.56 185.096 23.56H183.776V41.32ZM225.791 42.04C225.791 35.64 226.911 29.88 229.151 24.76C231.391 19.56 234.431 15.12 238.271 11.44C242.111 7.76 246.591 4.96 251.711 3.03999C256.831 1.04 262.271 0.0399966 268.031 0.0399966C272.591 0.0399966 276.631 0.479996 280.151 1.35999C283.751 2.24 286.831 3.24 289.391 4.36C292.351 5.64 294.911 7.03999 297.071 8.55999L284.471 30.76C283.191 29.8 281.791 28.88 280.271 28C278.911 27.36 277.271 26.76 275.351 26.2C273.511 25.56 271.391 25.24 268.991 25.24C266.511 25.24 264.231 25.68 262.151 26.56C260.071 27.44 258.231 28.64 256.631 30.16C255.111 31.68 253.911 33.48 253.031 35.56C252.151 37.56 251.711 39.72 251.711 42.04C251.711 44.36 252.151 46.56 253.031 48.64C253.991 50.64 255.271 52.4 256.871 53.92C258.471 55.44 260.351 56.64 262.511 57.52C264.671 58.4 267.031 58.84 269.591 58.84C272.151 58.84 274.431 58.52 276.431 57.88C278.431 57.24 280.111 56.52 281.471 55.72C283.071 54.84 284.471 53.8 285.671 52.6L298.271 74.8C296.111 76.56 293.551 78.12 290.591 79.48C288.031 80.6 284.951 81.64 281.351 82.6C277.751 83.56 273.631 84.04 268.991 84.04C262.751 84.04 256.991 83.04 251.711 81.04C246.431 78.96 241.871 76.08 238.031 72.4C234.191 68.72 231.191 64.32 229.031 59.2C226.871 54 225.791 48.28 225.791 42.04ZM301.302 1.95999H328.422V82H301.302V1.95999ZM360.569 1.95999H379.769L410.129 82H384.929L382.289 74.8H358.049L355.409 82H330.209L360.569 1.95999ZM375.569 57.16L370.169 43.12L364.769 57.16H375.569Z"/>
</mask>
<path d="M53.4734 29.2C52.0334 27.92 50.2334 26.96 48.0734 26.32C45.9134 25.6 43.7934 25.24 41.7134 25.24C39.3934 25.24 37.2734 25.68 35.3534 26.56C33.4334 27.36 31.7534 28.52 30.3134 30.04C28.9534 31.48 27.8734 33.24 27.0734 35.32C26.2734 37.4 25.8734 39.64 25.8734 42.04C25.8734 44.44 26.3134 46.68 27.1934 48.76C28.0734 50.84 29.2734 52.64 30.7934 54.16C32.3134 55.6 34.0734 56.76 36.0734 57.64C38.1534 58.44 40.3534 58.84 42.6734 58.84C45.3934 58.84 47.8734 58.28 50.1134 57.16C52.3534 55.96 54.2734 54.36 55.8734 52.36H48.6734V35.56H79.5134V62.2C77.6734 65.48 75.4734 68.48 72.9134 71.2C70.3534 73.84 67.4734 76.12 64.2734 78.04C61.1534 79.96 57.7534 81.44 54.0734 82.48C50.3934 83.52 46.5934 84.04 42.6734 84.04C36.9134 84.04 31.4734 82.96 26.3534 80.8C21.2334 78.64 16.7534 75.68 12.9134 71.92C9.15344 68.16 6.15344 63.72 3.91344 58.6C1.75344 53.48 0.673438 47.96 0.673438 42.04C0.673438 36.28 1.71344 30.84 3.79344 25.72C5.87344 20.6 8.71344 16.16 12.3134 12.4C15.9934 8.56 20.3134 5.56 25.2734 3.4C30.3134 1.16 35.7134 0.0399966 41.4734 0.0399966C45.9534 0.0399966 49.8334 0.479996 53.1134 1.35999C56.3934 2.24 59.1534 3.24 61.3934 4.36C64.0334 5.64 66.2334 7.03999 67.9934 8.55999L53.4734 29.2ZM106.858 1.95999H126.058L156.418 82H131.218L128.578 74.8H104.338L101.698 82H76.4984L106.858 1.95999ZM121.858 57.16L116.458 43.12L111.058 57.16H121.858ZM158.216 1.95999H185.816C190.936 1.95999 195.656 2.63999 199.976 4C204.376 5.36 208.176 7.36 211.376 10C214.576 12.64 217.056 15.92 218.816 19.84C220.656 23.68 221.576 28.12 221.576 33.16C221.576 37.16 221.016 40.56 219.896 43.36C218.776 46.16 217.536 48.48 216.176 50.32C214.576 52.4 212.776 54.16 210.776 55.6L225.776 82H195.776L183.776 61.72V82H158.216V1.95999ZM183.776 41.32H185.096C188.136 41.32 190.696 40.64 192.776 39.28C194.936 37.92 196.016 35.64 196.016 32.44C196.016 29.24 194.936 26.96 192.776 25.6C190.696 24.24 188.136 23.56 185.096 23.56H183.776V41.32ZM225.791 42.04C225.791 35.64 226.911 29.88 229.151 24.76C231.391 19.56 234.431 15.12 238.271 11.44C242.111 7.76 246.591 4.96 251.711 3.03999C256.831 1.04 262.271 0.0399966 268.031 0.0399966C272.591 0.0399966 276.631 0.479996 280.151 1.35999C283.751 2.24 286.831 3.24 289.391 4.36C292.351 5.64 294.911 7.03999 297.071 8.55999L284.471 30.76C283.191 29.8 281.791 28.88 280.271 28C278.911 27.36 277.271 26.76 275.351 26.2C273.511 25.56 271.391 25.24 268.991 25.24C266.511 25.24 264.231 25.68 262.151 26.56C260.071 27.44 258.231 28.64 256.631 30.16C255.111 31.68 253.911 33.48 253.031 35.56C252.151 37.56 251.711 39.72 251.711 42.04C251.711 44.36 252.151 46.56 253.031 48.64C253.991 50.64 255.271 52.4 256.871 53.92C258.471 55.44 260.351 56.64 262.511 57.52C264.671 58.4 267.031 58.84 269.591 58.84C272.151 58.84 274.431 58.52 276.431 57.88C278.431 57.24 280.111 56.52 281.471 55.72C283.071 54.84 284.471 53.8 285.671 52.6L298.271 74.8C296.111 76.56 293.551 78.12 290.591 79.48C288.031 80.6 284.951 81.64 281.351 82.6C277.751 83.56 273.631 84.04 268.991 84.04C262.751 84.04 256.991 83.04 251.711 81.04C246.431 78.96 241.871 76.08 238.031 72.4C234.191 68.72 231.191 64.32 229.031 59.2C226.871 54 225.791 48.28 225.791 42.04ZM301.302 1.95999H328.422V82H301.302V1.95999ZM360.569 1.95999H379.769L410.129 82H384.929L382.289 74.8H358.049L355.409 82H330.209L360.569 1.95999ZM375.569 57.16L370.169 43.12L364.769 57.16H375.569Z" fill="#D19D40"/>
<path d="M53.4734 29.2L52.1447 30.6948L53.8197 32.1837L55.1092 30.3507L53.4734 29.2ZM48.0734 26.32L47.441 28.2174L47.473 28.228L47.5053 28.2376L48.0734 26.32ZM35.3534 26.56L36.1227 28.4062L36.155 28.3927L36.1867 28.3781L35.3534 26.56ZM30.3134 30.04L28.8615 28.6645L28.8594 28.6667L30.3134 30.04ZM27.0734 35.32L28.9401 36.038L28.9401 36.038L27.0734 35.32ZM27.1934 48.76L29.0354 47.9807L29.0354 47.9807L27.1934 48.76ZM30.7934 54.16L29.3792 55.5742L29.3983 55.5933L29.418 55.6119L30.7934 54.16ZM36.0734 57.64L35.268 59.4706L35.3113 59.4897L35.3555 59.5067L36.0734 57.64ZM50.1134 57.16L51.0079 58.9489L51.0331 58.9363L51.0579 58.923L50.1134 57.16ZM55.8734 52.36L57.4352 53.6094L60.0347 50.36H55.8734V52.36ZM48.6734 52.36H46.6734V54.36H48.6734V52.36ZM48.6734 35.56V33.56H46.6734V35.56H48.6734ZM79.5134 35.56H81.5134V33.56H79.5134V35.56ZM79.5134 62.2L81.2577 63.1785L81.5134 62.7227V62.2H79.5134ZM72.9134 71.2L74.3492 72.5923L74.3596 72.5816L74.3698 72.5707L72.9134 71.2ZM64.2734 78.04L63.2444 76.325L63.2348 76.3308L63.2252 76.3367L64.2734 78.04ZM26.3534 80.8L27.1308 78.9573L27.1308 78.9573L26.3534 80.8ZM12.9134 71.92L11.4992 73.3342L11.5067 73.3417L11.5142 73.349L12.9134 71.92ZM3.91344 58.6L2.07071 59.3774L2.07584 59.3896L2.08112 59.4016L3.91344 58.6ZM3.79344 25.72L5.64637 26.4728L5.64637 26.4728L3.79344 25.72ZM12.3134 12.4L10.8695 11.0162L10.8688 11.0169L12.3134 12.4ZM25.2734 3.4L26.072 5.23367L26.0789 5.23067L26.0857 5.22762L25.2734 3.4ZM53.1134 1.35999L53.6317 -0.571691L53.6317 -0.571692L53.1134 1.35999ZM61.3934 4.36L60.499 6.14885L60.5099 6.15431L60.5209 6.15963L61.3934 4.36ZM67.9934 8.55999L69.6292 9.71075L70.671 8.22983L69.3007 7.04635L67.9934 8.55999ZM54.8022 27.7052C53.1086 26.1998 51.0358 25.1118 48.6416 24.4024L47.5053 28.2376C49.4311 28.8082 50.9583 29.6402 52.1447 30.6948L54.8022 27.7052ZM48.7059 24.4226C46.3612 23.6411 44.0278 23.24 41.7134 23.24V27.24C43.5591 27.24 45.4657 27.5589 47.441 28.2174L48.7059 24.4226ZM41.7134 23.24C39.1344 23.24 36.7264 23.7307 34.5201 24.7419L36.1867 28.3781C37.8205 27.6293 39.6525 27.24 41.7134 27.24V23.24ZM34.5842 24.7138C32.4045 25.6221 30.4924 26.943 28.8615 28.6645L31.7653 31.4155C33.0145 30.097 34.4624 29.0979 36.1227 28.4062L34.5842 24.7138ZM28.8594 28.6667C27.2994 30.3185 26.0886 32.3092 25.2067 34.602L28.9401 36.038C29.6582 34.1708 30.6074 32.6415 31.7675 31.4132L28.8594 28.6667ZM25.2067 34.602C24.3121 36.9282 23.8734 39.4135 23.8734 42.04H27.8734C27.8734 39.8665 28.2348 37.8718 28.9401 36.038L25.2067 34.602ZM23.8734 42.04C23.8734 44.6907 24.3608 47.1975 25.3515 49.5393L29.0354 47.9807C28.2661 46.1625 27.8734 44.1893 27.8734 42.04H23.8734ZM25.3515 49.5393C26.3267 51.8443 27.668 53.8629 29.3792 55.5742L32.2077 52.7458C30.8789 51.4171 29.8202 49.8357 29.0354 47.9807L25.3515 49.5393ZM29.418 55.6119C31.112 57.2168 33.0669 58.5022 35.268 59.4706L36.8789 55.8094C35.08 55.0178 33.5149 53.9832 32.1689 52.7081L29.418 55.6119ZM35.3555 59.5067C37.6739 60.3984 40.1182 60.84 42.6734 60.84V56.84C40.5887 56.84 38.6329 56.4816 36.7914 55.7733L35.3555 59.5067ZM42.6734 60.84C45.6767 60.84 48.4668 60.2194 51.0079 58.9489L49.219 55.3711C47.2801 56.3406 45.1102 56.84 42.6734 56.84V60.84ZM51.0579 58.923C53.5382 57.5942 55.6676 55.8188 57.4352 53.6094L54.3117 51.1106C52.8793 52.9012 51.1687 54.3258 49.169 55.397L51.0579 58.923ZM55.8734 50.36H48.6734V54.36H55.8734V50.36ZM50.6734 52.36V35.56H46.6734V52.36H50.6734ZM48.6734 37.56H79.5134V33.56H48.6734V37.56ZM77.5134 35.56V62.2H81.5134V35.56H77.5134ZM77.7692 61.2215C76.0082 64.3605 73.9047 67.2286 71.457 69.8293L74.3698 72.5707C77.0422 69.7314 79.3386 66.5995 81.2577 63.1785L77.7692 61.2215ZM71.4776 69.8077C69.0404 72.3211 66.2976 74.4931 63.2444 76.325L65.3024 79.755C68.6493 77.7469 71.6664 75.3589 74.3492 72.5923L71.4776 69.8077ZM63.2252 76.3367C60.2691 78.1559 57.0398 79.5633 53.5295 80.5554L54.6174 84.4046C58.467 83.3167 62.0378 81.7641 65.3216 79.7433L63.2252 76.3367ZM53.5295 80.5554C50.0309 81.5441 46.4142 82.04 42.6734 82.04V86.04C46.7727 86.04 50.756 85.4959 54.6174 84.4046L53.5295 80.5554ZM42.6734 82.04C37.1705 82.04 31.9958 81.0097 27.1308 78.9573L25.576 82.6427C30.9511 84.9103 36.6564 86.04 42.6734 86.04V82.04ZM27.1308 78.9573C22.2343 76.8915 17.9671 74.0693 14.3127 70.491L11.5142 73.349C15.5398 77.2907 20.2326 80.3885 25.576 82.6427L27.1308 78.9573ZM14.3277 70.5058C10.7529 66.931 7.89096 62.7017 5.74575 57.7984L2.08112 59.4016C4.41591 64.7383 7.554 69.389 11.4992 73.3342L14.3277 70.5058ZM5.75617 57.8226C3.70662 52.9644 2.67344 47.7106 2.67344 42.04H-1.32656C-1.32656 48.2093 -0.199747 53.9956 2.07071 59.3774L5.75617 57.8226ZM2.67344 42.04C2.67344 36.527 3.66759 31.3436 5.64637 26.4728L1.9405 24.9672C-0.240715 30.3364 -1.32656 36.033 -1.32656 42.04H2.67344ZM5.64637 26.4728C7.63722 21.5722 10.3433 17.3496 13.7581 13.7831L10.8688 11.0169C7.08356 14.9703 4.10965 19.6278 1.9405 24.9672L5.64637 26.4728ZM13.7574 13.7838C17.251 10.1384 21.3505 7.28979 26.072 5.23367L24.4749 1.56633C19.2764 3.83021 14.7359 6.98164 10.8695 11.0162L13.7574 13.7838ZM26.0857 5.22762C30.8587 3.10631 35.9806 2.04 41.4734 2.04V-1.96C35.4463 -1.96 29.7682 -0.786321 24.4612 1.57237L26.0857 5.22762ZM41.4734 2.04C45.8306 2.04 49.5281 2.4688 52.5952 3.29168L53.6317 -0.571692C50.1388 -1.50881 46.0763 -1.96 41.4734 -1.96V2.04ZM52.5952 3.29168C55.7878 4.14825 58.4131 5.10591 60.499 6.14885L62.2879 2.57114C59.8937 1.37408 56.999 0.331744 53.6317 -0.571691L52.5952 3.29168ZM60.5209 6.15963C63.043 7.38247 65.0871 8.69263 66.6862 10.0736L69.3007 7.04635C67.3797 5.38736 65.0239 3.89752 62.266 2.56037L60.5209 6.15963ZM66.3577 7.40924L51.8377 28.0492L55.1092 30.3507L69.6292 9.71075L66.3577 7.40924ZM106.858 1.95999V-0.0400066H105.478L104.988 1.25068L106.858 1.95999ZM126.058 1.95999L127.928 1.25068L127.439 -0.0400066H126.058V1.95999ZM156.418 82V84H159.316L158.288 81.2907L156.418 82ZM131.218 82L129.341 82.6885L129.822 84H131.218V82ZM128.578 74.8L130.456 74.1115L129.975 72.8H128.578V74.8ZM104.338 74.8V72.8H102.942L102.461 74.1115L104.338 74.8ZM101.698 82V84H103.095L103.576 82.6885L101.698 82ZM76.4984 82L74.6284 81.2907L73.6008 84H76.4984V82ZM121.858 57.16V59.16H124.77L123.725 56.442L121.858 57.16ZM116.458 43.12L118.325 42.402L116.458 37.5486L114.592 42.402L116.458 43.12ZM111.058 57.16L109.192 56.442L108.146 59.16H111.058V57.16ZM106.858 3.95999H126.058V-0.0400066H106.858V3.95999ZM124.188 2.6693L154.548 82.7093L158.288 81.2907L127.928 1.25068L124.188 2.6693ZM156.418 80H131.218V84H156.418V80ZM133.096 81.3115L130.456 74.1115L126.701 75.4885L129.341 82.6885L133.096 81.3115ZM128.578 72.8H104.338V76.8H128.578V72.8ZM102.461 74.1115L99.8207 81.3115L103.576 82.6885L106.216 75.4885L102.461 74.1115ZM101.698 80H76.4984V84H101.698V80ZM78.3684 82.7093L108.728 2.6693L104.988 1.25068L74.6284 81.2907L78.3684 82.7093ZM123.725 56.442L118.325 42.402L114.592 43.838L119.992 57.878L123.725 56.442ZM114.592 42.402L109.192 56.442L112.925 57.878L118.325 43.838L114.592 42.402ZM111.058 59.16H121.858V55.16H111.058V59.16ZM158.216 1.95999V-0.0400066H156.216V1.95999H158.216ZM199.976 4L199.375 5.90772L199.385 5.9108L199.976 4ZM211.376 10L210.103 11.5427L211.376 10ZM218.816 19.84L216.991 20.6592L217.001 20.6818L217.012 20.7042L218.816 19.84ZM219.896 43.36L218.039 42.6172L218.039 42.6172L219.896 43.36ZM216.176 50.32L217.761 51.5394L217.773 51.5242L217.784 51.5088L216.176 50.32ZM210.776 55.6L209.607 53.9769L208.149 55.0264L209.037 56.588L210.776 55.6ZM225.776 82V84H229.212L227.515 81.012L225.776 82ZM195.776 82L194.054 83.0185L194.635 84H195.776V82ZM183.776 61.72L185.497 60.7015L181.776 54.4126V61.72H183.776ZM183.776 82V84H185.776V82H183.776ZM158.216 82H156.216V84H158.216V82ZM183.776 41.32H181.776V43.32H183.776V41.32ZM192.776 39.28L191.71 37.5875L191.695 37.5967L191.681 37.6061L192.776 39.28ZM192.776 25.6L191.681 27.2739L191.695 27.2833L191.71 27.2925L192.776 25.6ZM183.776 23.56V21.56H181.776V23.56H183.776ZM158.216 3.95999H185.816V-0.0400066H158.216V3.95999ZM185.816 3.95999C190.758 3.95999 195.273 4.61626 199.375 5.90769L200.576 2.0923C196.038 0.663728 191.113 -0.0400066 185.816 -0.0400066V3.95999ZM199.385 5.9108C203.563 7.20227 207.125 9.08611 210.103 11.5427L212.648 8.45725C209.226 5.63389 205.188 3.51773 200.566 2.08919L199.385 5.9108ZM210.103 11.5427C213.057 13.9801 215.352 17.0092 216.991 20.6592L220.64 19.0208C218.759 14.8308 216.094 11.2999 212.648 8.45725L210.103 11.5427ZM217.012 20.7042C218.701 24.2293 219.576 28.3647 219.576 33.16H223.576C223.576 27.8753 222.61 23.1307 220.619 18.9758L217.012 20.7042ZM219.576 33.16C219.576 36.9841 219.039 40.1168 218.039 42.6172L221.753 44.1028C222.992 41.0032 223.576 37.3359 223.576 33.16H219.576ZM218.039 42.6172C216.963 45.3056 215.799 47.4642 214.567 49.1312L217.784 51.5088C219.272 49.4958 220.588 47.0144 221.753 44.1028L218.039 42.6172ZM214.59 49.1006C213.101 51.0365 211.439 52.6576 209.607 53.9769L211.944 57.2231C214.112 55.6624 216.05 53.7635 217.761 51.5394L214.59 49.1006ZM209.037 56.588L224.037 82.988L227.515 81.012L212.515 54.612L209.037 56.588ZM225.776 80H195.776V84H225.776V80ZM197.497 80.9815L185.497 60.7015L182.054 62.7385L194.054 83.0185L197.497 80.9815ZM181.776 61.72V82H185.776V61.72H181.776ZM183.776 80H158.216V84H183.776V80ZM160.216 82V1.95999H156.216V82H160.216ZM183.776 43.32H185.096V39.32H183.776V43.32ZM185.096 43.32C188.437 43.32 191.399 42.5699 193.87 40.9539L191.681 37.6061C189.993 38.7101 187.834 39.32 185.096 39.32V43.32ZM193.841 40.9725C196.734 39.1513 198.016 36.1277 198.016 32.44H194.016C194.016 35.1523 193.138 36.6887 191.71 37.5875L193.841 40.9725ZM198.016 32.44C198.016 28.7523 196.734 25.7287 193.841 23.9075L191.71 27.2925C193.138 28.1913 194.016 29.7277 194.016 32.44H198.016ZM193.87 23.9261C191.399 22.3101 188.437 21.56 185.096 21.56V25.56C187.834 25.56 189.993 26.1699 191.681 27.2739L193.87 23.9261ZM185.096 21.56H183.776V25.56H185.096V21.56ZM181.776 23.56V41.32H185.776V23.56H181.776ZM229.151 24.76L230.983 25.5616L230.987 25.5512L229.151 24.76ZM238.271 11.44L239.654 12.884L239.654 12.884L238.271 11.44ZM251.711 3.03999L252.413 4.91265L252.426 4.90787L252.438 4.90291L251.711 3.03999ZM280.151 1.35999L279.666 3.30031L279.676 3.30279L280.151 1.35999ZM289.391 4.36L288.589 6.19233L288.597 6.19571L289.391 4.36ZM297.071 8.55999L298.81 9.54721L299.706 7.96883L298.222 6.92438L297.071 8.55999ZM284.471 30.76L283.271 32.36L285.088 33.7233L286.21 31.7472L284.471 30.76ZM280.271 28L281.273 26.2691L281.199 26.2266L281.122 26.1904L280.271 28ZM275.351 26.2L274.694 28.089L274.742 28.1057L274.791 28.12L275.351 26.2ZM262.151 26.56L262.93 28.4019L262.93 28.4019L262.151 26.56ZM256.631 30.16L255.253 28.71L255.235 28.7277L255.216 28.7458L256.631 30.16ZM253.031 35.56L254.861 36.3655L254.867 36.3524L254.873 36.3393L253.031 35.56ZM253.031 48.64L251.189 49.4193L251.207 49.4628L251.228 49.5055L253.031 48.64ZM256.871 53.92L255.493 55.37L256.871 53.92ZM262.511 57.52L263.265 55.6678L263.265 55.6678L262.511 57.52ZM276.431 57.88L277.04 59.7848L277.04 59.7848L276.431 57.88ZM281.471 55.72L280.507 53.9676L280.481 53.9815L280.457 53.9961L281.471 55.72ZM285.671 52.6L287.41 51.6128L286.114 49.3286L284.256 51.1858L285.671 52.6ZM298.271 74.8L299.534 76.3505L300.844 75.2828L300.01 73.8128L298.271 74.8ZM290.591 79.48L291.392 81.3123L291.409 81.305L291.426 81.2974L290.591 79.48ZM281.351 82.6L280.835 80.6675L281.351 82.6ZM251.711 81.04L250.978 82.9008L250.99 82.9056L251.002 82.9103L251.711 81.04ZM238.031 72.4L239.414 70.956L239.414 70.956L238.031 72.4ZM229.031 59.2L227.184 59.9672L227.188 59.9774L229.031 59.2ZM227.791 42.04C227.791 35.876 228.868 30.3947 230.983 25.5616L227.318 23.9584C224.953 29.3653 223.791 35.404 223.791 42.04H227.791ZM230.987 25.5512C233.129 20.5808 236.02 16.3671 239.654 12.884L236.887 9.99602C232.841 13.8729 229.653 18.5391 227.314 23.9687L230.987 25.5512ZM239.654 12.884C243.293 9.39692 247.539 6.74018 252.413 4.91265L251.008 1.16734C245.642 3.17981 240.928 6.12307 236.887 9.99602L239.654 12.884ZM252.438 4.90291C257.315 2.9978 262.508 2.04 268.031 2.04V-1.96C262.034 -1.96 256.346 -0.917811 250.983 1.17708L252.438 4.90291ZM268.031 2.04C272.467 2.04 276.339 2.46855 279.666 3.30028L280.636 -0.580291C276.923 -1.50856 272.714 -1.96 268.031 -1.96V2.04ZM279.676 3.30279C283.198 4.1637 286.162 5.13059 288.589 6.19231L290.192 2.52768C287.499 1.34941 284.304 0.316294 280.626 -0.582804L279.676 3.30279ZM288.597 6.19571C291.458 7.43284 293.893 8.76936 295.92 10.1956L298.222 6.92438C295.928 5.31063 293.244 3.84715 290.184 2.52428L288.597 6.19571ZM295.331 7.57278L282.731 29.7728L286.21 31.7472L298.81 9.54721L295.331 7.57278ZM285.671 29.16C284.322 28.1482 282.855 27.185 281.273 26.2691L279.269 29.7308C280.727 30.575 282.06 31.4518 283.271 32.36L285.671 29.16ZM281.122 26.1904C279.643 25.4943 277.9 24.8602 275.911 24.28L274.791 28.12C276.641 28.6597 278.178 29.2257 279.419 29.8096L281.122 26.1904ZM276.008 24.311C273.914 23.5827 271.564 23.24 268.991 23.24V27.24C271.217 27.24 273.107 27.5373 274.694 28.089L276.008 24.311ZM268.991 23.24C266.269 23.24 263.721 23.7239 261.371 24.7181L262.93 28.4019C264.74 27.6361 266.752 27.24 268.991 27.24V23.24ZM261.371 24.7181C259.075 25.6895 257.031 27.0206 255.253 28.71L258.008 31.61C259.43 30.2594 261.066 29.1905 262.93 28.4019L261.371 24.7181ZM255.216 28.7458C253.505 30.4571 252.164 32.4757 251.189 34.7807L254.873 36.3393C255.657 34.4843 256.716 32.9029 258.045 31.5742L255.216 28.7458ZM251.2 34.7545C250.201 37.0238 249.711 39.4601 249.711 42.04H253.711C253.711 39.9799 254.1 38.0962 254.861 36.3655L251.2 34.7545ZM249.711 42.04C249.711 44.6203 250.202 47.0859 251.189 49.4193L254.873 47.8607C254.1 46.0341 253.711 44.0997 253.711 42.04H249.711ZM251.228 49.5055C252.292 51.7234 253.716 53.6817 255.493 55.37L258.248 52.47C256.825 51.1183 255.689 49.5566 254.834 47.7745L251.228 49.5055ZM255.493 55.37C257.284 57.0713 259.378 58.4035 261.756 59.3722L263.265 55.6678C261.323 54.8765 259.657 53.8087 258.248 52.47L255.493 55.37ZM261.756 59.3722C264.178 60.3589 266.797 60.84 269.591 60.84V56.84C267.264 56.84 265.163 56.4411 263.265 55.6678L261.756 59.3722ZM269.591 60.84C272.314 60.84 274.805 60.5 277.04 59.7848L275.821 55.9752C274.056 56.54 271.987 56.84 269.591 56.84V60.84ZM277.04 59.7848C279.138 59.1135 280.963 58.339 282.485 57.4439L280.457 53.9961C279.258 54.701 277.723 55.3665 275.821 55.9752L277.04 59.7848ZM282.434 57.4724C284.187 56.5084 285.742 55.3574 287.085 54.0142L284.256 51.1858C283.2 52.2426 281.954 53.1716 280.507 53.9676L282.434 57.4724ZM283.931 53.5872L296.531 75.7872L300.01 73.8128L287.41 51.6128L283.931 53.5872ZM297.007 73.2495C294.998 74.8867 292.587 76.3616 289.756 77.6626L291.426 81.2974C294.514 79.8784 297.223 78.2333 299.534 76.3505L297.007 73.2495ZM289.789 77.6477C287.346 78.7163 284.368 79.7256 280.835 80.6675L281.866 84.5325C285.534 83.5544 288.715 82.4837 291.392 81.3123L289.789 77.6477ZM280.835 80.6675C277.439 81.5733 273.497 82.04 268.991 82.04V86.04C273.764 86.04 278.063 85.5467 281.866 84.5325L280.835 80.6675ZM268.991 82.04C262.967 82.04 257.45 81.0754 252.419 79.1697L251.002 82.9103C256.531 85.0046 262.534 86.04 268.991 86.04V82.04ZM252.444 79.1792C247.389 77.188 243.054 74.4443 239.414 70.956L236.647 73.844C240.687 77.7157 245.472 80.732 250.978 82.9008L252.444 79.1792ZM239.414 70.956C235.78 67.4731 232.932 63.3029 230.873 58.4226L227.188 59.9774C229.449 65.3371 232.601 69.9669 236.647 73.844L239.414 70.956ZM230.878 58.4328C228.829 53.501 227.791 48.0452 227.791 42.04H223.791C223.791 48.5148 224.912 54.499 227.184 59.9672L230.878 58.4328ZM301.302 1.95999V-0.0400066H299.302V1.95999H301.302ZM328.422 1.95999H330.422V-0.0400066H328.422V1.95999ZM328.422 82V84H330.422V82H328.422ZM301.302 82H299.302V84H301.302V82ZM301.302 3.95999H328.422V-0.0400066H301.302V3.95999ZM326.422 1.95999V82H330.422V1.95999H326.422ZM328.422 80H301.302V84H328.422V80ZM303.302 82V1.95999H299.302V82H303.302ZM360.569 1.95999V-0.0400066H359.189L358.699 1.25068L360.569 1.95999ZM379.769 1.95999L381.639 1.25068L381.15 -0.0400066H379.769V1.95999ZM410.129 82V84H413.027L411.999 81.2907L410.129 82ZM384.929 82L383.052 82.6885L383.533 84H384.929V82ZM382.289 74.8L384.167 74.1115L383.686 72.8H382.289V74.8ZM358.049 74.8V72.8H356.653L356.172 74.1115L358.049 74.8ZM355.409 82V84H356.806L357.287 82.6885L355.409 82ZM330.209 82L328.339 81.2907L327.312 84H330.209V82ZM375.569 57.16V59.16H378.481L377.436 56.442L375.569 57.16ZM370.169 43.12L372.036 42.402L370.169 37.5486L368.303 42.402L370.169 43.12ZM364.769 57.16L362.903 56.442L361.857 59.16H364.769V57.16ZM360.569 3.95999H379.769V-0.0400066H360.569V3.95999ZM377.899 2.6693L408.259 82.7093L411.999 81.2907L381.639 1.25068L377.899 2.6693ZM410.129 80H384.929V84H410.129V80ZM386.807 81.3115L384.167 74.1115L380.412 75.4885L383.052 82.6885L386.807 81.3115ZM382.289 72.8H358.049V76.8H382.289V72.8ZM356.172 74.1115L353.532 81.3115L357.287 82.6885L359.927 75.4885L356.172 74.1115ZM355.409 80H330.209V84H355.409V80ZM332.079 82.7093L362.439 2.6693L358.699 1.25068L328.339 81.2907L332.079 82.7093ZM377.436 56.442L372.036 42.402L368.303 43.838L373.703 57.878L377.436 56.442ZM368.303 42.402L362.903 56.442L366.636 57.878L372.036 43.838L368.303 42.402ZM364.769 59.16H375.569V55.16H364.769V59.16Z" fill="black" mask="url(#path-1-outside-1_40_26)"/>
</svg>
