<svg width="34" height="34" viewBox="0 0 34 34" fill="none" xmlns="http://www.w3.org/2000/svg">
<circle cx="17" cy="17" r="17" fill="#D9D9D9"/>
<path fill-rule="evenodd" clip-rule="evenodd" d="M23.403 9.63303C22.5714 8.79591 21.5819 8.13214 20.4919 7.68018C19.4019 7.22821 18.233 6.99703 17.053 7.00003C12.105 7.00003 8.077 11.027 8.075 15.977C8.075 17.559 8.488 19.103 9.273 20.465L8 25.116L12.759 23.867C14.0754 24.5836 15.5502 24.9594 17.049 24.96H17.053C22 24.96 26.028 20.933 26.03 15.983C26.0334 14.8035 25.803 13.635 25.3521 12.5451C24.9012 11.4552 24.2387 10.4654 23.403 9.63303ZM17.053 23.445H17.05C15.7135 23.4452 14.4016 23.0856 13.252 22.404L12.98 22.242L10.156 22.983L10.909 20.23L10.732 19.948C9.98479 18.7585 9.58923 17.3818 9.591 15.977C9.593 11.863 12.94 8.51603 17.056 8.51603C18.0363 8.51385 19.0072 8.70611 19.9127 9.08168C20.8181 9.45725 21.6401 10.0087 22.331 10.704C23.0256 11.3961 23.5762 12.2189 23.9509 13.125C24.3256 14.0311 24.517 15.0025 24.514 15.983C24.512 20.097 21.165 23.445 17.053 23.445ZM21.146 17.856C20.921 17.743 19.819 17.201 19.613 17.126C19.408 17.051 19.259 17.014 19.109 17.238C18.959 17.462 18.529 17.967 18.398 18.117C18.267 18.267 18.136 18.285 17.912 18.173C17.688 18.061 16.965 17.824 16.108 17.06C15.441 16.465 14.991 15.731 14.86 15.506C14.729 15.281 14.846 15.16 14.959 15.048C15.06 14.948 15.183 14.786 15.295 14.655C15.407 14.524 15.444 14.431 15.519 14.281C15.594 14.131 15.557 14 15.5 13.888C15.444 13.775 14.995 12.671 14.808 12.222C14.627 11.787 14.442 11.845 14.304 11.839C14.1611 11.8332 14.018 11.8305 13.875 11.831C13.7613 11.8339 13.6493 11.8603 13.5463 11.9085C13.4432 11.9567 13.3512 12.0256 13.276 12.111C13.07 12.336 12.491 12.878 12.491 13.982C12.491 15.086 13.295 16.153 13.407 16.303C13.519 16.453 14.989 18.718 17.239 19.69C17.775 19.921 18.193 20.059 18.518 20.163C19.055 20.334 19.544 20.309 19.931 20.252C20.362 20.188 21.258 19.71 21.445 19.186C21.632 18.662 21.632 18.213 21.576 18.119C21.52 18.025 21.369 17.968 21.146 17.856Z" fill="black"/>
</svg>
