<svg width="34" height="34" viewBox="0 0 34 34" fill="none" xmlns="http://www.w3.org/2000/svg">
<circle cx="17" cy="17" r="17" fill="#D9D9D9"/>
<path d="M16.997 12.3721C15.7707 12.3721 14.5946 12.8592 13.7274 13.7264C12.8602 14.5936 12.373 15.7697 12.373 16.9961C12.373 18.2224 12.8602 19.3986 13.7274 20.2657C14.5946 21.1329 15.7707 21.6201 16.997 21.6201C18.2234 21.6201 19.3995 21.1329 20.2667 20.2657C21.1339 19.3986 21.621 18.2224 21.621 16.9961C21.621 15.7697 21.1339 14.5936 20.2667 13.7264C19.3995 12.8592 18.2234 12.3721 16.997 12.3721ZM16.997 19.9991C16.2003 19.9991 15.4363 19.6826 14.8729 19.1192C14.3095 18.5559 13.993 17.7918 13.993 16.9951C13.993 16.1984 14.3095 15.4343 14.8729 14.8709C15.4363 14.3076 16.2003 13.9911 16.997 13.9911C17.7938 13.9911 18.5578 14.3076 19.1212 14.8709C19.6846 15.4343 20.001 16.1984 20.001 16.9951C20.001 17.7918 19.6846 18.5559 19.1212 19.1192C18.5578 19.6826 17.7938 19.9991 16.997 19.9991Z" fill="black"/>
<path d="M21.8036 13.28C22.3989 13.28 22.8816 12.7974 22.8816 12.202C22.8816 11.6067 22.3989 11.124 21.8036 11.124C21.2082 11.124 20.7256 11.6067 20.7256 12.202C20.7256 12.7974 21.2082 13.28 21.8036 13.28Z" fill="black"/>
<path d="M25.531 11.106C25.2995 10.5082 24.9457 9.96528 24.4923 9.51206C24.0389 9.05883 23.4959 8.70527 22.898 8.474C22.1983 8.21136 21.4592 8.06934 20.712 8.054C19.749 8.012 19.444 8 17.002 8C14.56 8 14.247 8 13.292 8.054C12.5454 8.06856 11.8068 8.2106 11.108 8.474C10.5099 8.705 9.96676 9.05847 9.51333 9.51173C9.0599 9.96499 8.70623 10.508 8.475 11.106C8.2123 11.8056 8.07061 12.5448 8.056 13.292C8.013 14.254 8 14.559 8 17.002C8 19.444 8 19.755 8.056 20.712C8.071 21.46 8.212 22.198 8.475 22.899C8.70688 23.4968 9.0609 24.0396 9.51444 24.4928C9.96798 24.946 10.5111 25.2996 11.109 25.531C11.8064 25.8042 12.5454 25.9564 13.294 25.981C14.257 26.023 14.562 26.036 17.004 26.036C19.446 26.036 19.759 26.036 20.714 25.981C21.4611 25.9658 22.2002 25.8241 22.9 25.562C23.4978 25.3302 24.0406 24.9763 24.494 24.523C24.9473 24.0696 25.3012 23.5268 25.533 22.929C25.796 22.229 25.937 21.491 25.952 20.743C25.995 19.781 26.008 19.476 26.008 17.033C26.008 14.59 26.008 14.28 25.952 13.323C25.9404 12.5653 25.7979 11.8152 25.531 11.106ZM24.313 20.638C24.3066 21.2143 24.2014 21.7852 24.002 22.326C23.8518 22.7149 23.6219 23.068 23.3271 23.3627C23.0322 23.6574 22.679 23.8871 22.29 24.037C21.7552 24.2354 21.1904 24.3406 20.62 24.348C19.67 24.392 19.402 24.403 16.966 24.403C14.528 24.403 14.279 24.403 13.311 24.348C12.7409 24.341 12.1763 24.2358 11.642 24.037C11.2517 23.888 10.897 23.6587 10.6009 23.364C10.3048 23.0692 10.0738 22.7156 9.923 22.326C9.72645 21.791 9.62131 21.2268 9.612 20.657C9.569 19.707 9.559 19.439 9.559 17.003C9.559 14.566 9.559 14.317 9.612 13.348C9.61846 12.772 9.72366 12.2014 9.923 11.661C10.228 10.872 10.853 10.251 11.642 9.949C12.1766 9.75114 12.741 9.64596 13.311 9.638C14.262 9.595 14.529 9.583 16.966 9.583C19.403 9.583 19.653 9.583 20.62 9.638C21.1904 9.64486 21.7554 9.75007 22.29 9.949C22.6789 10.0993 23.0321 10.3292 23.327 10.624C23.6218 10.9189 23.8517 11.2721 24.002 11.661C24.1986 12.1959 24.3037 12.7602 24.313 13.33C24.356 14.281 24.367 14.548 24.367 16.985C24.367 19.421 24.367 19.683 24.324 20.639H24.313V20.638Z" fill="black"/>
</svg>
