<svg width="285" height="285" viewBox="0 0 285 285" fill="none" xmlns="http://www.w3.org/2000/svg">
<circle cx="142.5" cy="142.5" r="142.5" fill="#D9D9D9"/>
<path d="M65.6346 71.6536C88.2645 82.3326 133.248 81.8683 156.154 67.2427C157.81 66.082 164.985 65.1534 166.641 67.2427C170.229 70.725 170.92 75.3858 169.125 85.5826C166.829 95.2319 164.779 100.293 160.018 108.798C157.108 113.688 155.914 116.251 154.222 120.638C153.096 126.209 153.01 129.47 154.222 135.495C156.37 141.191 158.116 143.492 161.674 146.871L161.807 146.973C165.943 150.14 168.35 151.983 173.265 152.442L173.418 152.457C175.573 152.645 177.734 152.664 178.959 152.65C179.685 152.599 180.896 152.486 181.523 152.332C182.189 152.168 182.805 152.014 183.599 151.731C184.393 151.449 213.801 136.621 218.249 134.567C222.696 132.512 230.115 130.852 233.427 130.62C236.739 130.388 240.051 131.084 242.534 132.477C245.018 133.87 246.122 135.031 246.95 137.817C247.778 140.602 248.33 142.692 247.778 149.889C247.226 157.085 245.204 164.126 239.775 172.175C237.516 175.758 235.948 177.548 232.875 180.533L224.044 188.194L231.495 206.069C232.323 208.159 230.943 209.551 230.115 210.016C229.011 210.635 226.804 211.177 225.148 210.48C223.492 209.784 223.216 208.855 222.388 207.694C221.56 206.533 214.937 193.301 214.937 193.301L209.141 195.39C214.392 191.278 221.836 184.479 221.836 184.479L226.528 179.836L230.667 174.729C231.696 172.827 232.323 170.782 232.047 168.925C231.771 167.068 229.839 165.675 229.839 165.675C227.091 163.422 224.124 162.019 216.593 160.103C210.354 158.693 206.843 158.191 200.586 157.55C191.1 156.977 179.417 157.042 176.3 156.853C173.975 156.712 169.702 155.739 167.352 154.803C164.374 153.616 162.554 152.138 158.842 149.125L158.638 148.96C155.201 145.815 151.739 140.603 151.739 140.603C151.739 140.603 149.146 136.22 148.449 132.844C147.753 129.468 147.042 126.84 146.398 125.215C145.754 123.59 143.313 121.944 140.424 121.334C136.732 120.435 133.299 120.507 126.073 121.102C116.13 122.921 110.929 124.821 102.339 129.924C97.9265 133.145 96.1885 135.317 94.06 139.674C93.3053 143.391 93.2307 145.475 94.06 149.192C95.9666 154.647 97.8091 157.442 101.787 162.193C98.8231 160.359 96.9857 158.962 93.2321 155.46C89.4294 151.435 87.7282 149.031 85.2288 144.549C79.5256 134.743 76.7189 128.327 72.258 115.53C67.223 100.981 64.6507 92.6324 60.3911 77.4574C59.9105 75.6199 59.8303 74.5636 60.3911 72.5822C61.1681 71.2902 61.743 71.0405 62.8749 70.9571C64.0067 70.8738 65.6346 71.6536 65.6346 71.6536Z" fill="black"/>
<path d="M80.6836 164.372C84.0824 166.889 85.9204 168.001 88.9628 169.015C92.6284 170.014 94.6829 170.037 98.346 169.015C101.771 168.031 104.417 165.765 110.489 160.658C116.56 155.55 123.46 150.907 123.46 150.907C126.64 148.807 128.095 147.421 132.762 146.891C135.153 146.709 137.951 147.618 138.916 148.223C141.639 149.887 155.707 162.444 166.428 170.384C177.15 178.324 186.658 181.087 186.658 181.087C194.756 183.605 199.065 183.826 206.252 181.784C210.342 180.502 212.495 178.989 216.187 175.515C213.008 180.025 210.86 182.455 205.7 186.427C198.405 192.119 194.061 194.676 185.83 198.034C178.297 200.599 173.947 201.419 165.96 201.981C162.798 202.077 160.798 202.088 156.577 201.981C156.577 201.981 155.197 226.125 154.645 229.375C154.093 232.625 148.849 232.857 148.021 229.375C147.193 225.892 144.158 200.588 144.158 200.588C127.261 198.17 118.685 195.349 104.693 188.052C104.693 188.052 88.1349 213.124 86.2031 215.446C84.2713 217.767 80.6836 215.91 81.7875 213.82C82.8914 211.731 96.6901 183.176 96.6901 183.176C87.7847 177.393 84.5454 173.118 80.6836 164.372Z" fill="black"/>
</svg>
